<svg id="Layer_1" enable-background="new 0 0 74 74" height="512" viewBox="0 0 74 74" width="512" xmlns="http://www.w3.org/2000/svg"><g><circle cx="49.11" cy="8.64" r=".75"/><path d="m9.25 47.23c-.41 0-.75.34-.75.75v3.82c0 .41.34.75.75.75s.75-.34.75-.75v-3.82c0-.42-.34-.75-.75-.75z"/><path d="m12.58 52.55c.41 0 .75-.34.75-.75v-3.82c0-.41-.34-.75-.75-.75s-.75.34-.75.75v3.82c0 .41.34.75.75.75z"/><path d="m15.91 52.55c.41 0 .75-.34.75-.75v-3.82c0-.41-.34-.75-.75-.75s-.75.34-.75.75v3.82c0 .41.34.75.75.75z"/><path d="m60.33 36.82c-1.31 0-2.59-.42-3.8-1.26-.34-.23-.81-.15-1.04.19-.24.34-.15.81.19 1.04 1.46 1.01 3.03 1.52 4.65 1.52h.05c.41 0 .72-.34.72-.75s-.35-.74-.77-.74z"/><path d="m28.08 36.28c-.41 0-.75.34-.75.75v6.03c0 .41.34.75.75.75s.75-.34.75-.75v-6.03c0-.41-.34-.75-.75-.75z"/><path d="m28.07 30.3c.41 0 .76-.34.76-.76s-.34-.76-.76-.76-.76.34-.76.76.35.76.76.76z"/><path d="m11.64 61.22c-1.3 0-2.35 1.05-2.35 2.35 0 1.27 1.08 2.35 2.35 2.35 1.3 0 2.35-1.05 2.35-2.35 0-1.32-1.04-2.35-2.35-2.35zm0 3.2c-.45 0-.85-.4-.85-.85 0-.47.38-.85.85-.85.48 0 .85.37.85.85 0 .47-.38.85-.85.85z"/><path d="m19.43 61.22c-1.3 0-2.35 1.05-2.35 2.35 0 1.27 1.08 2.35 2.35 2.35 1.3 0 2.35-1.05 2.35-2.35 0-1.32-1.03-2.35-2.35-2.35zm0 3.2c-.45 0-.85-.4-.85-.85 0-.47.38-.85.85-.85.48 0 .85.37.85.85 0 .47-.38.85-.85.85z"/><path d="m27.22 61.22c-1.3 0-2.35 1.05-2.35 2.35 0 1.27 1.08 2.35 2.35 2.35 1.3 0 2.35-1.05 2.35-2.35 0-1.32-1.03-2.35-2.35-2.35zm0 3.2c-.45 0-.85-.4-.85-.85 0-.47.38-.85.85-.85.48 0 .85.37.85.85 0 .47-.38.85-.85.85z"/><path d="m35.02 61.22c-1.29 0-2.34 1.05-2.34 2.34 0 1.27 1.07 2.34 2.34 2.34 1.29 0 2.34-1.05 2.34-2.34 0-1.31-1.03-2.34-2.34-2.34zm0 3.19c-.45 0-.84-.39-.84-.84 0-.47.38-.84.84-.84.48 0 .84.36.84.84 0 .46-.38.84-.84.84z"/><path d="m45.16 63.57c0-1.32-1.03-2.35-2.35-2.35-1.3 0-2.35 1.05-2.35 2.35 0 1.27 1.08 2.35 2.35 2.35 1.3 0 2.35-1.06 2.35-2.35zm-2.35.85c-.45 0-.85-.4-.85-.85 0-.47.38-.85.85-.85.48 0 .85.37.85.85 0 .47-.38.85-.85.85z"/><path d="m33.47 24.93c.19 0 .38-.07.53-.22l10.72-10.65c.29-.29.3-.77 0-1.06-.29-.29-.77-.29-1.06 0l-10.72 10.65c-.29.29-.3.77 0 1.06.14.15.34.22.53.22z"/><path d="m68.25 67.5h-11.71c-1.16-.87-1.79-1.77-1.81-2.6-.02-.8.49-1.42.76-1.7 1.91-.07 3.62-.42 4.89-1.05.01.01.02.02.03.02 1.36.94 3.07 1.42 5.05 1.42.93 0 1.91-.11 2.95-.32.41-.08.67-.48.58-.89s-.48-.67-.89-.58c-2.86.59-5.16.3-6.83-.87-1.36-.95-1.97-2.23-2.25-3.2 2.24-.25 4.04-1.54 5-2.69 1.03.73 2.36 1.3 4.12 1.56.04.01.07.01.11.01.37 0 .69-.27.74-.64.06-.41-.22-.79-.63-.85-3.55-.52-5.03-2.49-5.83-4.38.08-.01.15-.04.23-.05.82-.09 1.67-.25 2.39-.87.27-.23.48-.48.68-.71.18-.21.35-.41.54-.56l.29-.24c.66-.57.73-.63 1.69-.74.41-.05.71-.42.66-.83s-.41-.7-.83-.66c-1.35.16-1.69.4-2.49 1.09l-.28.24c-.28.23-.5.49-.71.73-.16.19-.33.38-.52.55-.39.33-.89.44-1.57.51-.46.05-.9.16-1.32.31h-.01c-.01 0-.01.01-.01.01-.95.36-1.75.98-2.28 1.8-.34.54-.87.92-1.09.95-.2.03-.4.06-.61.08-.7.08-1.49.17-2.14.63-.41.29-.67.67-.89.99-.17.25-.32.47-.51.61-.4.29-1.06.31-1.76.34-.77.03-1.64.06-2.38.47-.77.43-2.18 2.18-2.89 3.45-.8-.46-1.71-.72-2.69-.72h-1.76v-2.22c1-.32 1.73-1.25 1.73-2.35v-5.74c0-1.5-.25-2.99-.76-4.41l-1.87-5.27c-.35-.99-1.29-1.65-2.34-1.65h-5.33c-.35 0-.68.07-.98.2v-5.25l16.4-17.62 12.58 12.8c.52.53 1.21.8 1.9.8.18 0 .35-.02.53-.06-.09 1-.43 1.86-1.03 2.6-.02-.01-.03-.02-.04-.03-.4-.18-.85-.17-1.25.02-.28.13-.54.24-.81.36-2.46-1.8-4.5-2.56-6.21-2.3-1.89.28-2.91 1.69-3.66 2.73-.21.3-.51.7-.7.86-.45-.14-.88-.31-1.3-.52-.43-.21-.94-.11-1.26.23-.33.35-.39.87-.16 1.29 3.37 6.07 7.71 9.23 12.65 9.23.56 0 1.14-.04 1.71-.12.72-.1 1.33-.51 1.76-1.17.26-.39.43-.88.57-1.41 4.28-3.38 4.63-6.75 4.45-8.47-.21-1.94-1.28-3.67-2.85-4.72.46-.91.36-2.04-.32-2.88l-13.75-16.72c-.64-.77-1.54-1.24-2.54-1.32-1-.07-1.96.25-2.71.92-.05.04-21.77 20.25-21.77 20.25-.96.89-1.49 2.1-1.49 3.4v14.14h-4.49v-.98c0-1.37-1.11-2.48-2.48-2.48h-2.44v-3.48c0-1.13-.44-2.18-1.23-2.98l-2.06-2.06c-.29-.29-.77-.29-1.06 0s-.29.77 0 1.06l2.06 2.06c.51.51.79 1.19.79 1.92v3.48h-2.44c-1.37 0-2.48 1.11-2.48 2.48v.98h-.11c-1.37.01-2.48 1.12-2.48 2.49v7.35c0 1.37 1.11 2.48 2.48 2.48h2.2v2.15c-2.64.37-4.68 2.64-4.68 5.38 0 3 2.44 5.43 5.43 5.43h33.58 24.24c.41 0 .75-.34.75-.75s-.34-.75-.75-.75zm-12.76-12.66c.17-.26.32-.48.52-.61.33-.24.87-.3 1.44-.36.23-.03.46-.05.68-.09.82-.14 1.65-.91 2.11-1.62.22-.34.53-.62.89-.86.39.92.93 1.91 1.76 2.79-1.08 1.32-4.06 3.52-7.77 1.27.14-.19.26-.36.37-.52zm-5.16 1.88c.43-.24 1.05-.26 1.71-.28.57-.02 1.2-.06 1.78-.24.06.1.13.19.23.26 1.19.78 2.34 1.17 3.43 1.29.28 1.24.86 2.38 1.68 3.31-2.52.96-6.67.87-10.48-.26-.22-.37-.48-.71-.78-1.02.45-.88 1.85-2.74 2.43-3.06zm-10.38-18.08 1.87 5.27c.45 1.26.67 2.57.67 3.91v.31h-5.77c-.22 0-.4-.18-.4-.4v-9.74h2.71c.41 0 .78.26.92.65zm-6.25-.65h1.11v9.74c0 1.05.85 1.9 1.9 1.9h5.77v3.93c0 .54-.44.98-.98.98h-8.79v-3.27-.13-12.17c.01-.54.45-.98.99-.98zm-2.48 11.01c-.3-.13-.63-.2-.98-.2h-1.26c-.65 0-1.22-.39-1.45-.99l-.83-2.13c-.32-.83-.97-1.45-1.77-1.75v-10.94c.87.81 1.97 1.26 3.16 1.26h.08c1.15-.02 2.21-.47 3.05-1.24v5.97zm31.6-23.41c-.01-.01-.01-.01-.01-.02-.45-.45-.46-1.18-.01-1.63s1.18-.44 1.63.01c.01.01.03.02.05.03l.02.02c.4.48.34 1.19-.12 1.6-.45.4-1.12.39-1.56-.01zm-10.48 6.01c.65-.91 1.4-1.93 2.66-2.12 1.12-.17 2.58.34 4.34 1.5-2.65.96-5.07 1.3-7.26.97.08-.11.17-.23.26-.35zm9.51 8.61c-4.76.68-8.88-1.78-12.25-7.32.19.07.7.21.77.22 3.12.87 6.66.49 10.55-1.2.21 0 1.16-.52 1.47-.68.99 3.64 1.06 7.13.18 8.47-.26.4-.54.48-.72.51zm5.49-9.4c.22 2.04-.73 4.15-2.68 6.07.03-1.84-.29-3.89-.73-5.63.97-1.04 1.55-2.27 1.69-3.71.95.8 1.58 1.97 1.72 3.27zm-18.06-24.3c.59.04 1.12.32 1.49.78l12.23 14.89c-.46.11-.91.33-1.27.69-.29.29-.49.64-.62 1l-13.52-13.73c-.41-.42-.63-.98-.61-1.56.02-.59.27-1.13.71-1.53.4-.36.9-.55 1.42-.55.06 0 .11 0 .17.01zm-23.35 20.77 19.59-18.21c.09.8.43 1.53 1.01 2.12l1.54 1.56-16.62 17.86c-.01.01-.01.01-.02.02l-1.04 1.11c-.59.63-1.39.99-2.25 1-.91.01-1.68-.32-2.29-.93-.6-.6-.92-1.39-.92-2.23 0-.87.35-1.69 1-2.3zm-16.83 15.47c0-.54.44-.98.98-.98h6.37c.54 0 .98.44.98.98v.98h-8.33zm-2.6 10.81v-7.35c0-.54.44-.98.98-.98h16.36c.64 0 1.22.4 1.45.99l.83 2.13c.46 1.18 1.58 1.95 2.85 1.95h1.26c.54 0 .98.44.98.98v3.27h-23.73c-.54 0-.98-.44-.98-.99zm34.26 2.49v2.09h-29.58v-2.09zm-34.26 7.52c0-2.17 1.76-3.93 3.93-3.93h33.58c2.17 0 3.93 1.76 3.93 3.93s-1.76 3.93-3.93 3.93h-33.58c-2.17 0-3.93-1.76-3.93-3.93zm42.95 0c0-.36-.04-.71-.1-1.04 1.45.36 2.91.57 4.32.65-.25.47-.45 1.07-.43 1.75.02.89.39 1.75 1.1 2.58h-6.58c1.03-1 1.69-2.4 1.69-3.94z"/></g></svg>